HIERARCHY
ROOT Hips
{
  OFFSET 5.84602e-005 68.8428 3.50346
  CHANNELS 6 Xposition Yposition Zposition Zrotation Xrotation Yrotation
  JOINT Spine
  {
    OFFSET 0 8.597 -4.6522
    CHANNELS 3 Zrotation Xrotation Yrotation
    JOINT Spine1
    {
      OFFSET 0 7.8454 0.4098
      CHANNELS 3 Zrotation Xrotation Yrotation
      JOINT Spine2
      {
        OFFSET 0 9.7078 -2.1609
        CHANNELS 3 Zrotation Xrotation Yrotation
        JOINT Neck
        {
          OFFSET 0 21.8761 -0.4549
          CHANNELS 3 Zrotation Xrotation Yrotation
          JOINT Head
          {
            OFFSET 0 12.3537 3.3602
            CHANNELS 3 Zrotation Xrotation Yrotation
            End Site
            {
              OFFSET 0.0001 18.9506 0.5657
            }
          }
        }
        JOINT LeftShoulder
        {
          OFFSET 2.2086 21.1115 7.2329
          CHANNELS 3 Zrotation Xrotation Yrotation
          JOINT LeftArm
          {
            OFFSET 13.1193 3.0282 -4.8998
            CHANNELS 3 Zrotation Xrotation Yrotation
            JOINT LeftForeArm
            {
              OFFSET 27.4081 -0.0973053 -0.2375
              CHANNELS 3 Zrotation Xrotation Yrotation
              JOINT LeftHand
              {
                OFFSET 22.8641 0.0662994 -0.1369
                CHANNELS 3 Zrotation Xrotation Yrotation
                JOINT LeftHandIndex1
                {
                  OFFSET 8.8614 0.775009 2.4612
                  CHANNELS 3 Zrotation Xrotation Yrotation
                  JOINT LeftHandIndex2
                  {
                    OFFSET 3.3146 -0.808304 0.5841
                    CHANNELS 3 Zrotation Xrotation Yrotation
                    JOINT LeftHandIndex3
                    {
                      OFFSET 2.2628 -0.552002 0.3989
                      CHANNELS 3 Zrotation Xrotation Yrotation
                      End Site
                      {
                        OFFSET 1.6102 -0.4807 0.2612
                      }
                    }
                  }
                }
                JOINT LeftHandMiddle1
                {
                  OFFSET 8.9937 0.895004 0.2143
                  CHANNELS 3 Zrotation Xrotation Yrotation
                  JOINT LeftHandMiddle2
                  {
                    OFFSET 4.0984 0.0113983 -0.0242
                    CHANNELS 3 Zrotation Xrotation Yrotation
                    JOINT LeftHandMiddle3
                    {
                      OFFSET 2.2716 0.00689697 -0.0138001
                      CHANNELS 3 Zrotation Xrotation Yrotation
                      End Site
                      {
                        OFFSET 2.0404 -0.1441 0.0027
                      }
                    }
                  }
                }
                JOINT LeftHandRing1
                {
                  OFFSET 8.5234 0.597198 -2.0164
                  CHANNELS 3 Zrotation Xrotation Yrotation
                  JOINT LeftHandRing2
                  {
                    OFFSET 3.7188 -0.188293 -0.2328
                    CHANNELS 3 Zrotation Xrotation Yrotation
                    JOINT LeftHandRing3
                    {
                      OFFSET 2.1191 -0.106598 -0.1332
                      CHANNELS 3 Zrotation Xrotation Yrotation
                      End Site
                      {
                        OFFSET 1.8737 -0.2304 -0.0886
                      }
                    }
                  }
                }
                JOINT LeftHandPinky1
                {
                  OFFSET 7.9094 -0.601089 -3.4825
                  CHANNELS 3 Zrotation Xrotation Yrotation
                  JOINT LeftHandPinky2
                  {
                    OFFSET 2.2874 -0.477005 -0.6314
                    CHANNELS 3 Zrotation Xrotation Yrotation
                    JOINT LeftHandPinky3
                    {
                      OFFSET 1.6774 -0.349396 -0.4633
                      CHANNELS 3 Zrotation Xrotation Yrotation
                      End Site
                      {
                        OFFSET 1.4888 -0.4091 -0.3416
                      }
                    }
                  }
                }
                JOINT LeftHandThumb1
                {
                  OFFSET 1.833 -1.3875 1.3896
                  CHANNELS 3 Zrotation Xrotation Yrotation
                  JOINT LeftHandThumb2
                  {
                    OFFSET 3.4129 -1.121 2.5732
                    CHANNELS 3 Zrotation Xrotation Yrotation
                    JOINT LeftHandThumb3
                    {
                      OFFSET 2.2474 -0.804199 1.6192
                      CHANNELS 3 Zrotation Xrotation Yrotation
                      End Site
                      {
                        OFFSET 1.6527 -0.5689 1.1317
                      }
                    }
                  }
                }
              }
            }
          }
        }
        JOINT RightShoulder
        {
          OFFSET -2.2086 21.1115 7.2329
          CHANNELS 3 Zrotation Xrotation Yrotation
          JOINT RightArm
          {
            OFFSET -13.1216 3.0287 -4.9007
            CHANNELS 3 Zrotation Xrotation Yrotation
            JOINT RightForeArm
            {
              OFFSET -27.4081 -0.0973053 -0.2375
              CHANNELS 3 Zrotation Xrotation Yrotation
              JOINT RightHand
              {
                OFFSET -22.8641 0.0664063 -0.1369
                CHANNELS 3 Zrotation Xrotation Yrotation
                JOINT RightHandIndex1
                {
                  OFFSET -8.8614 0.774994 2.4612
                  CHANNELS 3 Zrotation Xrotation Yrotation
                  JOINT RightHandIndex2
                  {
                    OFFSET -3.3146 -0.808304 0.5841
                    CHANNELS 3 Zrotation Xrotation Yrotation
                    JOINT RightHandIndex3
                    {
                      OFFSET -2.2628 -0.552002 0.3989
                      CHANNELS 3 Zrotation Xrotation Yrotation
                      End Site
                      {
                        OFFSET -1.6102 -0.4807 0.2612
                      }
                    }
                  }
                }
                JOINT RightHandMiddle1
                {
                  OFFSET -8.9937 0.894989 0.2143
                  CHANNELS 3 Zrotation Xrotation Yrotation
                  JOINT RightHandMiddle2
                  {
                    OFFSET -4.0984 0.0113983 -0.0242
                    CHANNELS 3 Zrotation Xrotation Yrotation
                    JOINT RightHandMiddle3
                    {
                      OFFSET -2.2716 0.00691223 -0.0138001
                      CHANNELS 3 Zrotation Xrotation Yrotation
                      End Site
                      {
                        OFFSET -2.0404 -0.1441 0.0027
                      }
                    }
                  }
                }
                JOINT RightHandRing1
                {
                  OFFSET -8.5234 0.597198 -2.0164
                  CHANNELS 3 Zrotation Xrotation Yrotation
                  JOINT RightHandRing2
                  {
                    OFFSET -3.7188 -0.188309 -0.2328
                    CHANNELS 3 Zrotation Xrotation Yrotation
                    JOINT RightHandRing3
                    {
                      OFFSET -2.1191 -0.106598 -0.1332
                      CHANNELS 3 Zrotation Xrotation Yrotation
                      End Site
                      {
                        OFFSET -1.8737 -0.2304 -0.0886
                      }
                    }
                  }
                }
                JOINT RightHandPinky1
                {
                  OFFSET -7.9094 -0.601105 -3.4825
                  CHANNELS 3 Zrotation Xrotation Yrotation
                  JOINT RightHandPinky2
                  {
                    OFFSET -2.2874 -0.477005 -0.6314
                    CHANNELS 3 Zrotation Xrotation Yrotation
                    JOINT RightHandPinky3
                    {
                      OFFSET -1.6774 -0.349396 -0.4633
                      CHANNELS 3 Zrotation Xrotation Yrotation
                      End Site
                      {
                        OFFSET -1.4888 -0.4091 -0.3416
                      }
                    }
                  }
                }
                JOINT RightHandThumb1
                {
                  OFFSET -1.833 -1.38751 1.3896
                  CHANNELS 3 Zrotation Xrotation Yrotation
                  JOINT RightHandThumb2
                  {
                    OFFSET -3.41299 -1.12099 2.5732
                    CHANNELS 3 Zrotation Xrotation Yrotation
                    JOINT RightHandThumb3
                    {
                      OFFSET -2.24741 -0.804108 1.6192
                      CHANNELS 3 Zrotation Xrotation Yrotation
                      End Site
                      {
                        OFFSET -1.6527 -0.5689 1.1317
                      }
                    }
                  }
                }
              }
            }
          }
        }
      }
    }
  }
  JOINT RightUpLeg
  {
    OFFSET -9.1966 3.8861 -0.7581
    CHANNELS 3 Zrotation Xrotation Yrotation
    JOINT RightLeg
    {
      OFFSET -0.7359 -41.0265 0
      CHANNELS 3 Zrotation Xrotation Yrotation
      JOINT RightFoot
      {
        OFFSET 0 -40.2855 0
        CHANNELS 3 Zrotation Xrotation Yrotation
        JOINT RightToeBase
        {
          OFFSET 0 -5.6122 11.7359
          CHANNELS 3 Zrotation Xrotation Yrotation
          End Site
          {
            OFFSET 0 0 7.8731
          }
        }
      }
    }
  }
  JOINT LeftUpLeg
  {
    OFFSET 9.1965 3.8864 -0.7581
    CHANNELS 3 Zrotation Xrotation Yrotation
    JOINT LeftLeg
    {
      OFFSET 0.7359 -41.0268 0
      CHANNELS 3 Zrotation Xrotation Yrotation
      JOINT LeftFoot
      {
        OFFSET 0 -40.2855 0
        CHANNELS 3 Zrotation Xrotation Yrotation
        JOINT LeftToeBase
        {
          OFFSET 0 -5.6122 11.7359
          CHANNELS 3 Zrotation Xrotation Yrotation
          End Site
          {
            OFFSET 0 0 7.8731
          }
        }
      }
    }
  }
}
MOTION
Frames:	6
Frame Time:	0.0333333
5.84602e-005 68.8428 3.50346 0 0 -0 0 0 -0 0 0 -0 0 0 -0 0 0 -0 0 0 -0 0 0 -0 0 0 -0 0 0 -0 0 0 -0 0 0 -0 0 0 -0 0 0 -0 0 0 -0 -0.0146107 -8.87603e-005 -2.63497e-007 2.99804e-018 -2.42657e-020 -1.42182e-022 0 0 -0 -0.0187562 -0.001176 5.858e-005 5.06224e-018 3.88251e-019 1.21329e-020 0 0 -0 -0.012269 -0.00324817 0.000675346 -1.74678e-018 3.88251e-019 -0 0 0 -0 0 0 -0 0 0 -0 0 0 -0 0 0 -0 0 0 -0 0 0 -0 0 0 -0 0 0 -0 0 0 -0 0 0 -0 0.0149955 -9.10982e-005 2.64101e-007 -9.69331e-018 1.21329e-020 -4.7394e-023 0 0 -0 0.0189956 -0.00119102 -5.96516e-005 -5.41541e-019 0 2.42657e-020 0 0 -0 0.0122698 -0.00324857 -0.000673756 -2.00796e-019 0 -1.94126e-019 0 0 -0 0 0 -0 0 0 -0 3.39842 1.33031 -0.0637918 -5.65207e-008 0.834868 -0.000436188 -3.39935 -2.16518 -0.0642563 -8.89002e-024 -1.18485e-023 -1.48106e-024 -3.39844 1.35642 0.0640283 -3.18788e-007 0.782166 -0.000588827 3.39931 -2.13858 0.0634662 1.1399e-023 0 -0 
3.23281 29.3085 -12.6343 -9.29659e-015 -18.0001 180 -0.240147 6.53656 -0.160445 -0.466331 13.0738 -0.296021 -0.466331 13.0738 -0.296021 -1.09934e-006 -0.571713 -3.07702e-007 6.65549e-008 -0.645223 2.17324e-007 8.91195 -7.69473 6.21542 -75.5321 6.83501 -23.0736 -17.3192 10.6362 -55.5471 0.0991284 2.61784 -8.69796 -3.18055e-015 3.18055e-015 -3.18055e-015 4.77083e-015 -3.18055e-015 -1.27222e-014 3.18055e-015 6.36111e-015 -3.18055e-015 -3.18055e-015 3.18055e-015 -3.18055e-015 -0.0146283 -9.50364e-005 9.59324e-007 -4.77083e-015 -3.18055e-015 6.36111e-015 -3.18055e-015 3.18055e-015 -3.18055e-015 -0.018775 -0.0011757 6.09809e-005 1.11319e-014 0 -3.18055e-015 -3.18055e-015 3.18055e-015 -3.18055e-015 -0.0123014 -0.00325419 0.000677346 3.18055e-015 -9.54166e-015 6.36111e-015 -3.18055e-015 3.18055e-015 -3.18055e-015 4.77083e-015 -3.18055e-015 -1.27222e-014 3.18055e-015 6.36111e-015 -3.18055e-015 -0.475027 -10.7902 4.36642 69.7513 3.2592 7.99793 16.8479 16.5766 64.5615 -4.65481 3.9959 4.74272 1.59028e-015 -9.54166e-015 3.18055e-015 -3.00553e-007 -4.94391e-007 6.2405e-007 -5.29669e-031 -3.18055e-015 -9.54166e-015 1.59028e-015 -9.54166e-015 3.18055e-015 0.0149851 -9.08158e-005 4.84697e-006 -1.76556e-031 -3.18055e-015 -3.18055e-015 1.59028e-015 -9.54166e-015 3.18055e-015 0.0189889 -0.00119083 -6.06939e-005 0 0 -3.18055e-015 1.59028e-015 -9.54166e-015 3.18055e-015 0.012294 -0.00325466 -0.000680908 4.77083e-015 3.18055e-015 3.18055e-015 1.59028e-015 -9.54166e-015 3.18055e-015 -3.00553e-007 -4.94391e-007 6.2405e-007 -5.29669e-031 -3.18055e-015 -9.54166e-015 -27.2603 -9.52096 -8.2452 -71.6752 84.6856 66.5199 7.57664 33.4726 0.65822 -3.67154e-006 -7.80389e-007 -7.64657e-009 106.691 -43.6682 116.666 46.576 81.9228 -34.5688 -21.0295 13.3906 9.82618 2.12281e-006 -1.5959e-006 -1.32403e-006 
3.23655 29.3102 -12.0617 -9.29611e-015 -17.9965 180 -0.240004 6.65941 -0.160631 -0.465834 13.3194 -0.295986 -0.465835 13.3194 -0.295986 -7.79646e-007 -1.14304 1.71609e-007 5.45506e-008 -1.28761 1.08903e-007 9.18669 -9.20107 6.26757 -75.5321 6.83501 -23.0736 -17.3192 10.6362 -55.5471 -0.103905 2.06118 -7.91169 -6.36111e-015 2.8625e-014 6.36111e-015 1.59028e-015 2.8625e-014 -0 1.59028e-015 2.8625e-014 -3.18055e-015 -6.36111e-015 2.8625e-014 6.36111e-015 -0.014633 -9.57078e-005 3.76491e-006 -7.95139e-015 -3.18055e-015 3.18055e-015 -6.36111e-015 2.8625e-014 6.36111e-015 -0.0187739 -0.00117903 5.81407e-005 -6.36111e-015 2.8625e-014 9.54166e-015 -6.36111e-015 2.8625e-014 6.36111e-015 -0.0122919 -0.00324881 0.000672619 1.59028e-015 -3.18055e-015 -0 -6.36111e-015 2.8625e-014 6.36111e-015 1.59028e-015 2.8625e-014 -0 1.59028e-015 2.8625e-014 -3.18055e-015 -0.750641 -12.2547 4.40847 69.7513 3.25919 7.99793 16.8479 16.5766 64.5615 -4.55248 3.40244 3.74201 5.97897e-007 9.91614e-007 -1.24766e-006 2.98949e-007 4.95807e-007 -6.23831e-007 2.98949e-007 4.95807e-007 -6.23831e-007 5.97897e-007 9.91614e-007 -1.24766e-006 0.0150235 -9.26603e-005 -7.52034e-006 2.98957e-007 4.95725e-007 -6.23897e-007 5.97897e-007 9.91614e-007 -1.24766e-006 0.0189793 -0.00118638 -6.40325e-005 2.98953e-007 4.95703e-007 -6.23917e-007 5.97897e-007 9.91614e-007 -1.24766e-006 0.0122326 -0.00323232 -0.000672948 2.98935e-007 4.9574e-007 -6.23893e-007 5.97897e-007 9.91614e-007 -1.24766e-006 2.98949e-007 4.95807e-007 -6.23831e-007 2.98949e-007 4.95807e-007 -6.23831e-007 -27.2194 -10.0734 -8.56685 -78.8049 84.8357 73.2669 7.5304 33.3681 0.296154 -1.14765e-006 -1.14258e-007 6.02631e-007 106.718 -43.9117 116.87 42.8045 81.4938 -30.8438 -20.6923 13.822 10.2181 -7.09972e-007 -1.16744e-006 -2.40493e-007 
3.24027 29.3117 -11.4886 -9.29611e-015 -17.9965 180 -0.239847 6.7824 -0.16081 -0.465313 13.5653 -0.295938 -0.465313 13.5653 -0.295937 -2.14983e-006 -1.71435 6.33594e-007 2.51785e-007 -1.93022 -8.04398e-008 9.46465 -10.7101 6.32743 -75.5321 6.83501 -23.0736 -17.3191 10.6362 -55.5471 -0.299427 1.50135 -7.12703 -1.59028e-015 3.18055e-015 -1.59028e-014 -1.25408e-006 1.34645e-007 -1.65809e-007 1.59028e-015 0 -3.18055e-015 -1.59028e-015 3.18055e-015 -1.59028e-014 -0.0146083 -9.06594e-005 -5.00963e-006 1.76556e-031 3.18055e-015 -3.18055e-015 -1.59028e-015 3.18055e-015 -1.59028e-014 -0.0187567 -0.00117101 5.92005e-005 -6.36111e-015 3.18055e-015 -0 -1.59028e-015 3.18055e-015 -1.59028e-014 -0.0122591 -0.00324402 0.000678073 -7.95139e-015 -3.18055e-015 1.90833e-014 -1.59028e-015 3.18055e-015 -1.59028e-014 -1.25408e-006 1.34645e-007 -1.65809e-007 1.59028e-015 0 -3.18055e-015 -1.0273 -13.7221 4.44357 69.7513 3.25918 7.99793 16.8479 16.5766 64.5615 -4.46052 2.80663 2.74179 2.97323e-007 4.97212e-007 -6.23621e-007 2.97323e-007 4.97212e-007 -6.23621e-007 2.97323e-007 4.97212e-007 -6.23621e-007 2.97323e-007 4.97212e-007 -6.23621e-007 0.0149755 -8.73308e-005 5.87809e-006 2.97331e-007 4.9713e-007 -6.23686e-007 2.97323e-007 4.97212e-007 -6.23621e-007 0.0190166 -0.00119301 -6.30213e-005 2.97327e-007 4.97108e-007 -6.23706e-007 2.97323e-007 4.97212e-007 -6.23621e-007 0.0122306 -0.00323552 -0.000673662 2.9731e-007 4.97145e-007 -6.23682e-007 2.97323e-007 4.97212e-007 -6.23621e-007 2.97323e-007 4.97212e-007 -6.23621e-007 2.97323e-007 4.97212e-007 -6.23621e-007 -27.1812 -10.6263 -8.88919 -86.2366 84.9062 80.3156 7.48348 33.2642 -0.0656815 -2.6799e-008 5.60871e-007 2.76719e-006 106.747 -44.1551 117.076 39.4044 81.0317 -27.4899 -20.3569 14.2557 10.6085 1.5016e-007 2.46983e-007 5.08374e-008 
3.24395 29.313 -10.9155 -9.29611e-015 -17.9965 180 -0.239677 6.90541 -0.160981 -0.464767 13.8114 -0.295877 -0.464767 13.8114 -0.295877 1.80059e-006 -2.28606 1.22802e-007 -1.00947e-007 -2.57301 7.14316e-009 9.74617 -12.2213 6.39522 -75.5321 6.83502 -23.0736 -17.3192 10.6362 -55.5471 -0.487304 0.938519 -6.34391 -6.36111e-015 -3.18055e-015 -0 -7.95139e-015 3.18055e-015 6.36111e-015 -6.36111e-015 3.18055e-015 -0 -6.36111e-015 -3.18055e-015 -0 -0.0146142 -8.97215e-005 -5.46363e-006 -3.18055e-015 2.8625e-014 6.36111e-015 -6.36111e-015 -3.18055e-015 -0 -0.0187846 -0.00118055 5.64454e-005 6.36111e-015 0 -3.18055e-015 -6.36111e-015 -3.18055e-015 -0 -0.0122727 -0.00324929 0.0006738 0 0 -6.36111e-015 -6.36111e-015 -3.18055e-015 -0 -7.95139e-015 3.18055e-015 6.36111e-015 -6.36111e-015 3.18055e-015 -0 -1.30529 -15.1918 4.4716 69.7513 3.25919 7.99793 16.8479 16.5766 64.5615 -4.37896 2.20875 1.74205 -1.6248e-006 -8.46229e-007 9.77572e-007 2.95695e-007 4.98602e-007 -6.2341e-007 -1.59028e-015 9.54166e-015 9.54166e-015 -1.6248e-006 -8.46229e-007 9.77572e-007 0.0150022 -8.94238e-005 -2.43136e-007 -1.59028e-015 0 6.36111e-015 -1.6248e-006 -8.46229e-007 9.77572e-007 0.0189687 -0.00118878 -5.88445e-005 1.0351e-006 -1.51037e-007 2.69257e-007 -1.6248e-006 -8.46229e-007 9.77572e-007 0.0122931 -0.00325358 -0.000675457 1.03451e-006 -1.51231e-007 2.69174e-007 -1.6248e-006 -8.46229e-007 9.77572e-007 2.95695e-007 4.98602e-007 -6.2341e-007 -1.59028e-015 9.54166e-015 9.54166e-015 -27.1458 -11.1795 -9.21224 -93.7517 84.894 87.4473 7.43591 33.1608 -0.427312 1.83401e-006 8.18626e-007 1.81014e-006 106.778 -44.3985 117.283 36.3433 80.5414 -24.4745 -20.0235 14.6917 10.9975 1.75103e-006 -3.57075e-007 1.10095e-007 
3.2476 29.3142 -10.3423 -9.29611e-015 -17.9965 180 -0.239493 7.02852 -0.161145 -0.464196 14.0577 -0.295805 -0.464196 14.0577 -0.295805 -1.51742e-005 -2.85677 3.48489e-006 -1.96979e-007 -3.21595 -1.9132e-007 10.0316 -13.734 6.47117 -75.5321 6.835 -23.0736 -17.3192 10.6362 -55.5471 -0.66755 0.372903 -5.56234 -1.59028e-015 -6.36111e-015 6.36111e-015 -1.27248e-006 1.22485e-007 -1.66111e-007 1.59028e-015 0 3.18055e-015 -1.59028e-015 -6.36111e-015 6.36111e-015 -0.0146031 -9.01162e-005 7.43307e-006 1.2738e-006 -1.22498e-007 1.66094e-007 -1.59028e-015 -6.36111e-015 6.36111e-015 -0.0187879 -0.00117917 5.96426e-005 -1.59028e-015 2.8625e-014 -6.36111e-015 -1.59028e-015 -6.36111e-015 6.36111e-015 -0.0123148 -0.00325837 0.000678562 -1.59028e-015 -9.54166e-015 -0 -1.59028e-015 -6.36111e-015 6.36111e-015 -1.27248e-006 1.22485e-007 -1.66111e-007 1.59028e-015 0 3.18055e-015 -1.5849 -16.6635 4.49242 69.7513 3.25919 7.99793 16.8479 16.5766 64.5615 -4.30781 1.6091 0.742797 -5.88129e-007 -9.99956e-007 1.2464e-006 3.18055e-015 6.36111e-015 6.36111e-015 1.59028e-015 0 9.54166e-015 -5.88129e-007 -9.99956e-007 1.2464e-006 0.0149907 -8.9129e-005 3.7586e-006 1.02509e-006 -1.52455e-007 2.41596e-007 -5.88129e-007 -9.99956e-007 1.2464e-006 0.0190033 -0.00119235 -5.99827e-005 -4.77083e-015 0 3.18055e-015 -5.88129e-007 -9.99956e-007 1.2464e-006 0.0122982 -0.00325445 -0.000673292 1.59028e-014 -9.54166e-015 3.18055e-015 -5.88129e-007 -9.99956e-007 1.2464e-006 3.18055e-015 6.36111e-015 6.36111e-015 1.59028e-015 0 9.54166e-015 -27.1131 -11.7333 -9.53607 -101.114 84.7996 94.4256 7.38769 33.0583 -0.788746 -6.57235e-007 -8.00969e-007 -3.37255e-006 106.811 -44.6418 117.493 33.5877 80.0269 -21.7643 -19.6922 15.1299 11.3848 -4.77665e-007 -7.85959e-007 -1.61587e-007 
